<?xml version="1.0" encoding="utf-8"?>
<!DOCTYPE svg PUBLIC "-//W3C//DTD SVG 20010904//EN" "http://www.w3.org/TR/2001/REC-SVG-20010904/DTD/svg10.dtd">
<svg version="1.0" xmlns="http://www.w3.org/2000/svg" width="342px" height="342px" viewBox="0 0 342 342" preserveAspectRatio="xMidYMid meet">
 <g fill="#ffa500">
  <path d="M0 171 l0 -171 171 0 171 0 0 171 0 171 -171 0 -171 0 0 -171z m224 5.1 l0 -130 -7.2 2 c-4 1.1 -12.2 3.3 -18.3 4.9 -13.2 3.4 -44.7 11.9 -60 16.1 -6 1.6 -25.6 6.9 -43.5 11.7 l-32.5 8.7 0 86.9 0 86.9 13 3.4 c7.2 1.9 28.8 7.6 48 12.8 19.3 5.2 44.5 12 56 15.1 11.6 3.1 25.5 6.9 31 8.4 5.5 1.6 10.8 2.9 11.8 2.9 1.6 0.1 1.7 -6.7 1.7 -129.8z m71 0.4 l0 -86.5 -27 0 -27 0 0 85.8 c0 47.2 0.3 86.2 0.7 86.5 0.3 0.4 12.5 0.7 27 0.7 l26.3 0 0 -86.5z"/>
  <path d="M97 218.9 c0 -3.1 1.4 -6.7 5.4 -14.3 2.9 -5.6 7.7 -14.6 10.6 -20.1 2.9 -5.5 6.4 -12 7.7 -14.4 l2.5 -4.3 -2.2 -4.7 c-1.3 -2.5 -3.1 -5.7 -4 -7.1 -0.9 -1.4 -4.1 -7 -7 -12.5 -2.9 -5.5 -5.6 -10.4 -6 -11 -2.6 -3.3 -6 -11.3 -6 -14.1 l0 -3.4 16 0 16.1 0 3.8 8.3 c2 4.5 4.8 10.6 6.1 13.5 l2.4 5.2 2.2 -5.2 c1.2 -2.9 4 -9 6.3 -13.5 l4.1 -8.3 16 0 16 0 0 3 c0 2.1 -3.9 10 -11.7 23.8 -6.4 11.4 -12.1 21.5 -12.7 22.5 -0.9 1.3 -0.2 3.4 3.2 10 5.1 9.9 13.8 26.4 19.2 36.3 2.5 4.6 4 8.7 4 10.9 l0 3.5 -16.1 0 -16 0 -3.1 -6.7 c-1.7 -3.8 -5 -11 -7.4 -16.2 l-4.3 -9.4 -1.6 3.9 c-0.9 2.1 -4 9.3 -6.9 15.9 l-5.4 12 -15.6 0.3 -15.6 0.3 0 -4.2z"/>
 </g>
 <g fill="#000000">
  <path d="M211 307 c-7.4 -2 -22.9 -6.3 -34.5 -9.4 -11.5 -3.1 -36.7 -9.9 -56 -15.1 -19.2 -5.2 -40.8 -10.9 -48 -12.8 l-13 -3.4 0 -89.9 0 -89.9 40 -10.8 c22 -5.9 45.2 -12.1 51.5 -13.8 6.3 -1.6 17.1 -4.5 24 -6.4 27.9 -7.6 50.2 -13.5 51.1 -13.5 1.3 0 0.7 268.3 -0.6 268.6 -0.5 0.1 -7.1 -1.5 -14.5 -3.6z m-79 -102.7 c3.6 -8.4 7.4 -17.1 8.4 -19.5 l1.8 -4.3 1.3 3 c0.8 1.7 3.5 7.7 6 13.5 2.6 5.8 6 13.3 7.6 16.8 l2.8 6.2 13 0 c7.2 0 13.1 -0.2 13.1 -0.6 0 -0.3 -1.3 -2.8 -2.9 -5.7 -3.1 -5.7 -8.1 -15.1 -19 -35.9 l-7.2 -13.8 11.1 -19.7 c6.2 -10.9 12.3 -21.7 13.7 -24 l2.4 -4.3 -13.1 0 -13.1 0 -5.8 12.3 c-3.2 6.7 -6.6 13.9 -7.5 16 -1.5 3.4 -3.6 5 -3.6 2.8 0 -0.5 -1.7 -4.7 -3.9 -9.3 -2.1 -4.5 -5.2 -11.3 -6.9 -15 l-3.1 -6.8 -13 0 c-7.2 0 -13.1 0.2 -13.1 0.4 0 0.5 5.1 10 6 11.1 0.4 0.6 3.1 5.5 6 11 3 5.5 6.4 11.6 7.7 13.5 1.2 1.9 2.3 3.8 2.3 4.3 0 0.4 1.1 2.5 2.5 4.7 l2.5 3.9 -3.9 7.3 c-2.1 4 -6 11.4 -8.6 16.3 -2.6 5 -7.2 13.5 -10.1 19.1 -3 5.6 -5.4 10.6 -5.4 11.3 0 0.8 3.5 1.1 12.6 0.9 l12.7 -0.3 6.7 -15.2z"/>
  <path d="M238.7 265.3 c-0.4 -0.3 -0.7 -40.6 -0.7 -89.5 l0 -88.8 30 0 30 0 0 89.5 0 89.5 -29.3 0 c-16.2 0 -29.7 -0.3 -30 -0.7z"/>
 </g>
</svg>